<svg width="512" height="512" viewBox="0 0 512 512" xmlns="http://www.w3.org/2000/svg">
  <!-- Background circle with gradient -->
  <defs>
    <linearGradient id="bg-gradient" x1="0%" y1="0%" x2="100%" y2="100%">
      <stop offset="0%" style="stop-color:#667eea;stop-opacity:1" />
      <stop offset="100%" style="stop-color:#764ba2;stop-opacity:1" />
    </linearGradient>
    <linearGradient id="star-gradient" x1="0%" y1="0%" x2="100%" y2="100%">
      <stop offset="0%" style="stop-color:#ffffff;stop-opacity:1" />
      <stop offset="100%" style="stop-color:#f8fafc;stop-opacity:0.9" />
    </linearGradient>
  </defs>
  
  <!-- Background -->
  <circle cx="256" cy="256" r="240" fill="url(#bg-gradient)" stroke="#ffffff" stroke-width="4"/>
  
  <!-- Main star/sparkle icon -->
  <g transform="translate(256,256)">
    <!-- Large central star -->
    <path d="M0,-80 L20,-20 L80,0 L20,20 L0,80 L-20,20 L-80,0 L-20,-20 Z" fill="url(#star-gradient)" opacity="0.95"/>
    
    <!-- Smaller accent stars -->
    <path d="M-60,-60 L-50,-50 L-40,-60 L-50,-50 L-60,-40 L-50,-50 L-40,-40 L-50,-50 Z" fill="#ffffff" opacity="0.8"/>
    <path d="M60,-40 L70,-30 L80,-40 L70,-30 L60,-20 L70,-30 L80,-20 L70,-30 Z" fill="#ffffff" opacity="0.7"/>
    <path d="M-40,60 L-30,70 L-20,60 L-30,70 L-40,80 L-30,70 L-20,80 L-30,70 Z" fill="#ffffff" opacity="0.6"/>
    
    <!-- Heart symbol for mental health -->
    <g transform="translate(0,20) scale(0.8)">
      <path d="M0,20 C-20,0 -40,0 -40,20 C-40,40 0,60 0,60 C0,60 40,40 40,20 C40,0 20,0 0,20 Z" fill="#ff6b9d" opacity="0.8"/>
    </g>
  </g>
  
  <!-- Outer ring for polish -->
  <circle cx="256" cy="256" r="240" fill="none" stroke="rgba(255,255,255,0.3)" stroke-width="2"/>
</svg>